<?xml version="1.0" encoding="UTF-8" standalone="no"?>
<!-- Creator: CorelDRAW X6 -->

<svg
   xmlns:dc="http://purl.org/dc/elements/1.1/"
   xmlns:cc="http://creativecommons.org/ns#"
   xmlns:rdf="http://www.w3.org/1999/02/22-rdf-syntax-ns#"
   xmlns:svg="http://www.w3.org/2000/svg"
   xmlns="http://www.w3.org/2000/svg"
   xmlns:sodipodi="http://sodipodi.sourceforge.net/DTD/sodipodi-0.dtd"
   xmlns:inkscape="http://www.inkscape.org/namespaces/inkscape"
   xml:space="preserve"
   width="4.5304999in"
   height="2.1689999in"
   version="1.1"
   style="clip-rule:evenodd;fill-rule:evenodd;image-rendering:optimizeQuality;shape-rendering:geometricPrecision;text-rendering:geometricPrecision"
   viewBox="0 0 4530.5 2168.9999"
   id="svg73"
   sodipodi:docname="letterhead_black.svg"
   inkscape:version="0.92.4 5da689c313, 2019-01-14"><metadata
   id="metadata77"><rdf:RDF><cc:Work
       rdf:about=""><dc:format>image/svg+xml</dc:format><dc:type
         rdf:resource="http://purl.org/dc/dcmitype/StillImage" /><dc:title></dc:title></cc:Work></rdf:RDF></metadata><sodipodi:namedview
   pagecolor="#ffffff"
   bordercolor="#666666"
   borderopacity="1"
   objecttolerance="10"
   gridtolerance="10"
   guidetolerance="10"
   inkscape:pageopacity="0"
   inkscape:pageshadow="2"
   inkscape:window-width="640"
   inkscape:window-height="480"
   id="namedview75"
   showgrid="false"
   inkscape:current-layer="svg73"
   showguides="true"
   inkscape:guide-bbox="true"
   fit-margin-top="0"
   fit-margin-left="0"
   fit-margin-right="0"
   fit-margin-bottom="0" />
 <defs
   id="defs4">
  <style
   type="text/css"
   id="style2">
   <![CDATA[
    .fil1 {fill:#373435;fill-rule:nonzero}
    .fil0 {fill:#4366AE;fill-rule:nonzero}
   ]]>
  </style>
 
  
  
 
  
  
  
  
  
  
  
  
  
  
 </defs>
 
 <g
   id="g1130"
   transform="translate(-344.8125,-1248.5247)"
   style="fill:#000000"><g
     transform="translate(-2845.1875,-3209.4753)"
     id="g966"
     style="fill:#000000"><g
       id="_401189152"
       style="fill:#000000">
   <g
   id="g15"
   style="fill:#000000">
    <path
   style="fill:#000000;fill-rule:nonzero"
   inkscape:connector-curvature="0"
   id="path11"
   d="m 3388,5245 c 27,-16 54,-30 82,-44 -133,-66 -205,-113 -245,-149 -6,9 -12,19 -16,28 l -9,21 c 17,33 63,76 189,144 z"
   class="fil1" />
    <path
   style="fill:#000000;fill-rule:nonzero"
   inkscape:connector-curvature="0"
   id="path13"
   d="m 3608,5266 c -8,4 -15,7 -23,11 l -14,7 c -18,9 -36,18 -54,27 24,12 50,24 78,37 l 14,7 c 123,60 268,131 340,218 6,-7 11,-14 15,-20 l 9,-16 c -41,-110 -224,-200 -365,-269 z"
   class="fil1" />
   </g>
   <g
   id="g25"
   style="fill:#000000">
    <g
   id="g19"
   style="fill:#000000">
     <path
   style="fill:#000000;fill-rule:nonzero"
   inkscape:connector-curvature="0"
   id="path17"
   d="m 3576,5790 c 32,-15 62,-29 90,-43 -22,-11 -43,-22 -64,-32 l -14,-7 c -204,-94 -307,-156 -359,-202 -9,12 -16,23 -21,35 l -6,15 c 27,45 111,110 374,233 z"
   class="fil1" />
    </g>
    <g
   id="g23"
   style="fill:#000000">
     <path
   style="fill:#000000;fill-rule:nonzero"
   inkscape:connector-curvature="0"
   id="path21"
   d="m 3793,5816 c -24,13 -50,27 -80,42 93,48 183,103 235,166 6,-7 11,-14 15,-20 l 9,-16 c -24,-64 -96,-121 -179,-171 z"
   class="fil1" />
    </g>
   </g>
  </g><path
       style="fill:#000000;fill-rule:nonzero"
       inkscape:connector-curvature="0"
       id="path28"
       d="m 3981,4920 c -28,49 -117,118 -399,248 l -15,7 c -159,78 -377,185 -377,316 v 42 c 49,-111 226,-197 372,-269 l 14,-7 c 405,-186 405,-244 405,-295 z"
       class="fil1" /><g
       id="_401192320"
       style="fill:#000000">
   <g
   id="g32"
   style="fill:#000000">
    <path
   style="fill:#000000;fill-rule:nonzero"
   inkscape:connector-curvature="0"
   id="path30"
   d="m 3981,6014 c -28,49 -117,118 -399,248 l -15,7 c -159,78 -377,185 -377,316 v 42 c 49,-110 226,-197 372,-269 l 15,-7 c 405,-186 405,-244 405,-295 v -42 z"
   class="fil1" />
   </g>
  </g><g
       id="_401193064"
       style="fill:#000000">
   <g
   id="g37"
   style="fill:#000000">
    <path
   style="fill:#000000;fill-rule:nonzero"
   inkscape:connector-curvature="0"
   id="path35"
   d="m 3981,5562 c -28,49 -117,118 -399,248 l -15,7 c -159,78 -377,185 -377,316 v 42 c 49,-111 226,-197 372,-269 l 14,-7 c 405,-186 405,-244 405,-295 z"
   class="fil1" />
   </g>
  </g><path
       style="fill:#000000;fill-rule:nonzero"
       inkscape:connector-curvature="0"
       id="path40"
       d="m 3981,4458 c -28,49 -117,118 -399,248 l -15,7 c -159,78 -377,185 -377,316 v 42 c 49,-111 226,-197 372,-269 l 14,-7 c 405,-186 405,-244 405,-295 z"
       class="fil1" /></g><g
     transform="translate(-2845.1875,-3225.3503)"
     id="g1010"
     style="fill:#000000"><g
       id="g974"
       transform="translate(3125,-343.75)"
       style="fill:#000000"><g
         id="_401193088"
         style="fill:#000000">
   <path
   class="fil1"
   d="m 1045,5251 c 50,2 87,3 111,3 27,0 68,-1 122,-3 v 9 c -23,3 -41,8 -54,15 -13,7 -20,20 -20,40 0,7 5,23 14,47 3,8 5,14 7,18 l 108,285 96,-238 -40,-101 c -16,-40 -45,-62 -88,-64 v -9 c 46,2 80,3 103,3 30,0 73,-1 130,-3 v 9 c -8,1 -16,2 -24,3 -8,2 -16,5 -23,8 -8,4 -14,8 -19,14 -5,6 -7,13 -7,21 0,8 5,25 15,50 l 116,307 118,-298 c 4,-10 8,-22 11,-34 3,-12 5,-22 5,-28 0,-8 -2,-14 -7,-20 -5,-5 -11,-10 -18,-13 -7,-3 -15,-6 -23,-8 -8,-2 -15,-3 -22,-3 v -9 h 2 c 44,2 76,3 99,3 21,0 51,-1 90,-3 v 9 c -15,2 -27,5 -38,11 -11,6 -20,13 -27,21 -7,8 -13,17 -18,26 -5,9 -10,20 -15,33 l -1,2 -177,413 h -13 l -113,-308 -130,308 h -14 l -158,-419 c -13,-35 -26,-57 -40,-67 -13,-10 -31,-17 -53,-20 l -4,-1 v -9 z"
   id="path42"
   inkscape:connector-curvature="0"
   style="fill:#000000;fill-rule:nonzero" />
  </g><g
         id="_401192824"
         style="fill:#000000">
   <path
   class="fil1"
   d="m 1818,5352 h 2 c 44,2 77,2 100,2 22,0 54,-1 98,-2 v 7 c -14,2 -26,7 -36,12 -10,6 -15,15 -15,26 0,8 8,23 25,46 l 88,119 73,-115 c 11,-17 16,-33 16,-48 0,-12 -5,-21 -15,-29 -10,-7 -21,-12 -34,-12 v -7 c 39,2 68,2 88,2 18,0 44,-1 79,-2 v 7 c -13,2 -25,7 -36,13 -11,6 -21,14 -30,24 -12,12 -27,30 -44,55 -2,3 -5,6 -7,9 l -85,124 v 91 c 0,15 1,28 4,37 2,9 7,17 12,22 6,5 13,9 22,12 9,2 21,4 37,6 v 7 c -49,-2 -86,-2 -111,-2 -21,0 -51,1 -92,2 v -7 c 28,-2 47,-8 57,-18 10,-10 15,-29 15,-58 v -98 l -112,-144 -2,-3 c -15,-20 -29,-36 -43,-47 -14,-12 -32,-20 -54,-25 v -7 z"
   id="path45"
   inkscape:connector-curvature="0"
   style="fill:#000000;fill-rule:nonzero" />
   <path
   class="fil1"
   d="m 2584,5470 c -6,-14 -13,-27 -21,-40 -8,-13 -18,-24 -30,-34 -11,-10 -24,-19 -38,-25 -14,-6 -28,-9 -44,-9 -25,0 -45,5 -59,14 -14,9 -21,25 -21,46 0,12 3,22 8,31 6,9 13,17 23,24 10,7 20,13 31,19 11,5 26,12 43,19 23,10 41,18 55,25 14,7 27,15 40,26 13,10 23,23 30,38 8,15 12,32 12,51 0,39 -13,68 -39,87 -26,20 -59,30 -100,30 -11,0 -22,-1 -33,-3 -11,-2 -26,-5 -43,-8 -19,-5 -32,-7 -37,-7 -5,0 -13,2 -22,5 -2,1 -4,1 -4,2 -5,-30 -14,-74 -27,-133 l -1,-6 8,-4 c 9,17 18,32 29,48 10,15 22,29 35,43 13,13 28,24 44,32 16,8 33,12 51,12 27,0 49,-6 66,-18 17,-12 26,-31 26,-56 0,-14 -3,-26 -9,-37 -6,-11 -15,-20 -25,-28 -11,-8 -22,-15 -34,-21 -12,-6 -28,-13 -48,-21 -21,-9 -37,-17 -50,-23 -13,-6 -25,-14 -37,-23 -12,-9 -21,-20 -28,-32 -7,-12 -10,-26 -10,-42 0,-16 3,-30 9,-43 6,-13 15,-25 25,-34 11,-10 23,-17 37,-22 14,-5 28,-7 44,-7 14,0 26,1 37,2 11,2 24,4 40,7 l 9,2 c 13,3 25,5 34,7 10,1 19,2 30,2 0,45 2,81 5,108 h -9 z"
   id="path47"
   inkscape:connector-curvature="0"
   style="fill:#000000;fill-rule:nonzero" />
   <path
   class="fil1"
   d="m 2953,5470 c -6,-14 -13,-27 -21,-40 -8,-13 -18,-24 -30,-34 -11,-10 -24,-19 -38,-25 -14,-6 -28,-9 -44,-9 -25,0 -45,5 -59,14 -14,9 -21,25 -21,46 0,12 3,22 8,31 6,9 13,17 23,24 10,7 20,13 31,19 11,5 26,12 43,19 23,10 41,18 55,25 14,7 27,15 40,26 13,10 23,23 30,38 8,15 12,32 12,51 0,39 -13,68 -39,87 -26,20 -59,30 -100,30 -11,0 -22,-1 -33,-3 -11,-2 -26,-5 -43,-8 -19,-5 -32,-7 -37,-7 -5,0 -13,2 -22,5 -2,1 -4,1 -4,2 -5,-30 -14,-74 -27,-133 l -1,-6 8,-4 c 9,17 18,32 29,48 10,15 22,29 35,43 13,13 28,24 44,32 16,8 33,12 51,12 27,0 49,-6 66,-18 17,-12 26,-31 26,-56 0,-14 -3,-26 -9,-37 -6,-11 -15,-20 -25,-28 -11,-8 -22,-15 -34,-21 -12,-6 -28,-13 -48,-21 -21,-9 -37,-17 -50,-23 -13,-6 -25,-14 -37,-23 -12,-9 -21,-20 -28,-32 -7,-12 -10,-26 -10,-42 0,-16 3,-30 9,-43 6,-13 15,-25 25,-34 11,-10 23,-17 37,-22 14,-5 28,-7 44,-7 14,0 26,1 37,2 11,2 24,4 40,7 l 9,2 c 13,3 25,5 34,7 10,1 19,2 30,2 0,45 2,81 5,108 h -9 z"
   id="path49"
   inkscape:connector-curvature="0"
   style="fill:#000000;fill-rule:nonzero" />
  </g></g><g
       id="g987"
       transform="translate(-12.5,437.5)"
       style="fill:#000000"><g
         id="_401192944"
         style="fill:#000000">
   <path
   class="fil1"
   d="m 4494,5352 11,1 c 12,0 24,1 37,1 13,0 26,1 39,1 11,0 28,-1 52,-2 h 2 c 7,9 18,23 33,42 15,19 36,44 62,76 20,24 37,45 51,62 14,17 28,35 44,54 15,19 28,35 39,48 11,13 19,25 25,33 h 1 c 0,-4 0,-17 1,-37 0,-20 0,-33 0,-37 v -72 c 0,-57 -5,-98 -15,-122 -10,-24 -31,-37 -62,-40 v -7 c 39,2 68,2 88,2 18,0 45,-1 81,-2 v 7 c -26,4 -44,11 -54,22 -10,11 -15,29 -15,55 v 329 h -23 c -21,-34 -44,-67 -69,-100 -25,-33 -50,-65 -75,-95 -25,-30 -48,-56 -69,-80 -21,-23 -45,-49 -71,-78 -1,28 -1,49 -1,63 v 109 c 0,40 1,70 2,90 2,20 5,35 10,46 5,11 13,18 24,23 11,4 26,8 47,10 v 7 c -55,-2 -96,-2 -123,-2 -16,0 -39,1 -71,2 v -7 h 1 c 18,-2 31,-5 40,-7 9,-2 17,-5 23,-9 7,-4 12,-11 15,-19 3,-8 5,-19 6,-33 l 7,-285 c -12,-10 -26,-18 -41,-25 -15,-6 -32,-12 -51,-16 v -7 z"
   id="path52"
   inkscape:connector-curvature="0"
   style="fill:#000000;fill-rule:nonzero" />
   <path
   class="fil1"
   d="m 5295,5470 c -6,-14 -13,-27 -21,-40 -8,-13 -18,-24 -30,-34 -11,-10 -24,-19 -38,-25 -14,-6 -28,-9 -44,-9 -25,0 -45,5 -59,14 -14,9 -21,25 -21,46 0,12 3,22 8,31 6,9 13,17 23,24 10,7 20,13 31,19 11,5 26,12 43,19 23,10 41,18 55,25 14,7 27,15 40,26 13,10 23,23 30,38 8,15 11,32 11,51 0,39 -13,68 -39,87 -26,20 -59,30 -100,30 -11,0 -22,-1 -33,-3 -11,-2 -26,-5 -43,-8 -19,-5 -32,-7 -37,-7 -5,0 -13,2 -22,5 -2,1 -4,1 -4,2 -5,-30 -14,-74 -27,-133 l -1,-6 8,-4 c 9,17 18,32 29,48 10,15 22,29 35,43 13,13 28,24 44,32 16,8 33,12 51,12 27,0 49,-6 66,-18 17,-12 26,-31 26,-56 0,-14 -3,-26 -9,-37 -6,-11 -15,-20 -25,-28 -11,-8 -22,-15 -34,-21 -12,-6 -28,-13 -48,-21 -21,-9 -38,-17 -50,-23 -13,-6 -25,-14 -37,-23 -12,-9 -21,-20 -28,-32 -7,-12 -10,-26 -10,-42 0,-16 3,-30 9,-43 6,-13 15,-25 25,-34 11,-10 23,-17 37,-22 14,-5 28,-7 44,-7 14,0 26,1 37,2 11,2 24,4 40,7 l 9,2 c 13,3 25,5 34,7 10,1 19,2 30,2 0,45 2,81 5,108 h -9 z"
   id="path54"
   inkscape:connector-curvature="0"
   style="fill:#000000;fill-rule:nonzero" />
   <path
   class="fil1"
   d="m 5468,5754 c 15,-1 27,-4 35,-7 8,-4 15,-9 19,-15 4,-7 7,-15 8,-26 1,-11 2,-26 2,-45 v -288 c -24,0 -43,1 -57,3 -14,2 -26,6 -37,13 -10,7 -20,17 -28,31 -8,14 -16,33 -24,58 l -8,-2 9,-122 c 46,2 80,2 103,2 h 146 c 22,0 54,-1 96,-2 h 2 l 9,122 -8,2 c -8,-25 -16,-44 -24,-58 -8,-14 -17,-24 -28,-31 -10,-7 -23,-11 -37,-13 -14,-2 -34,-3 -59,-3 v 288 c 0,19 1,34 2,45 1,11 4,19 8,26 4,7 11,12 19,15 9,4 21,6 36,7 v 7 h -2 c -40,-2 -71,-2 -93,-2 -20,0 -50,1 -90,2 v -7 z"
   id="path56"
   inkscape:connector-curvature="0"
   style="fill:#000000;fill-rule:nonzero" />
   <path
   class="fil1"
   d="m 5791,5754 c 15,-1 27,-4 35,-7 8,-4 15,-9 19,-15 4,-7 7,-15 8,-26 1,-11 2,-26 2,-45 v -208 c 0,-20 -1,-35 -2,-45 -1,-10 -4,-19 -8,-26 -4,-7 -10,-12 -19,-15 -8,-3 -20,-6 -36,-7 v -7 c 45,2 79,2 101,2 19,0 46,-1 81,-2 v 7 c -15,1 -26,4 -34,7 -8,3 -14,8 -18,15 -4,7 -7,16 -8,26 -1,11 -2,26 -2,45 v 208 c 0,19 1,34 2,45 1,11 4,19 8,26 4,7 11,12 19,15 9,4 21,6 36,7 v 7 h -2 c -40,-2 -71,-2 -93,-2 -20,0 -50,1 -90,2 v -7 z"
   id="path58"
   inkscape:connector-curvature="0"
   style="fill:#000000;fill-rule:nonzero" />
   <path
   class="fil1"
   d="m 6112,5754 c 15,-1 27,-4 35,-7 8,-4 15,-9 19,-15 4,-7 7,-15 8,-26 1,-11 2,-26 2,-45 v -288 c -24,0 -43,1 -57,3 -14,2 -26,6 -37,13 -10,7 -20,17 -28,31 -8,14 -16,33 -24,58 l -8,-2 9,-122 c 46,2 80,2 103,2 h 146 c 22,0 54,-1 96,-2 h 2 l 9,122 -8,2 c -8,-25 -16,-44 -24,-58 -8,-14 -17,-24 -28,-31 -10,-7 -23,-11 -37,-13 -14,-2 -34,-3 -59,-3 v 288 c 0,19 1,34 2,45 1,11 4,19 8,26 4,7 11,12 19,15 9,4 21,6 36,7 v 7 h -2 c -40,-2 -71,-2 -93,-2 -20,0 -50,1 -90,2 v -7 z"
   id="path60"
   inkscape:connector-curvature="0"
   style="fill:#000000;fill-rule:nonzero" />
   <path
   class="fil1"
   d="m 6485,5415 c 0,-21 -4,-34 -11,-40 -7,-6 -21,-11 -40,-15 l -2,-1 v -7 c 46,2 80,2 103,2 17,0 41,-1 72,-2 h 2 v 7 c -27,2 -44,8 -53,18 -9,10 -14,28 -14,53 v 203 c 0,19 3,35 9,48 6,14 15,25 27,34 21,17 50,25 86,25 25,0 46,-4 63,-11 17,-7 31,-17 41,-28 10,-11 17,-23 21,-36 4,-13 6,-25 6,-36 v -174 c 0,-34 -4,-57 -12,-71 -8,-13 -24,-21 -48,-24 v -7 c 34,2 59,2 76,2 14,0 35,-1 63,-2 v 7 c -11,2 -19,4 -26,6 -6,2 -12,6 -17,11 -5,5 -9,13 -11,23 -3,10 -4,24 -4,41 v 186 c 0,24 -4,45 -13,63 -8,18 -21,33 -36,46 -16,12 -34,21 -54,27 -21,6 -43,9 -66,9 -22,0 -42,-3 -62,-9 -19,-6 -37,-14 -52,-26 -15,-11 -27,-26 -36,-43 -9,-17 -13,-37 -13,-58 v -221 z"
   id="path62"
   inkscape:connector-curvature="0"
   style="fill:#000000;fill-rule:nonzero" />
   <path
   class="fil1"
   d="m 7010,5754 c 15,-1 27,-4 35,-7 8,-4 15,-9 19,-15 4,-7 7,-15 8,-26 1,-11 2,-26 2,-45 v -288 c -24,0 -43,1 -57,3 -14,2 -26,6 -37,13 -10,7 -20,17 -28,31 -8,14 -16,33 -24,58 l -8,-2 9,-122 c 46,2 80,2 103,2 h 146 c 22,0 54,-1 96,-2 h 2 l 9,122 -8,2 c -8,-25 -16,-44 -24,-58 -8,-14 -17,-24 -28,-31 -10,-7 -23,-11 -37,-13 -14,-2 -34,-3 -59,-3 v 288 c 0,19 1,34 2,45 1,11 4,19 8,26 4,7 11,12 19,15 9,4 21,6 36,7 v 7 h -2 c -40,-2 -71,-2 -93,-2 -20,0 -50,1 -90,2 v -7 z"
   id="path64"
   inkscape:connector-curvature="0"
   style="fill:#000000;fill-rule:nonzero" />
   <path
   class="fil1"
   d="m 7446,5735 c 8,2 19,4 33,6 14,2 26,2 36,2 25,0 48,-2 67,-6 19,-4 37,-11 53,-20 16,-9 31,-20 46,-34 15,-14 29,-31 45,-52 l 7,6 -57,125 c -19,-2 -34,-2 -44,-2 h -234 c -16,0 -40,1 -70,2 h -2 v -7 c 15,-1 27,-4 35,-7 8,-4 14,-9 19,-15 4,-7 7,-15 8,-26 1,-11 2,-26 2,-45 v -208 c 0,-20 -1,-35 -2,-45 -1,-10 -4,-19 -8,-26 -4,-7 -10,-12 -19,-15 -9,-3 -20,-6 -36,-7 v -7 l 23,1 c 22,0 46,1 71,1 25,0 51,1 80,1 40,0 98,-1 173,-2 h 2 c -1,13 -1,30 -1,52 0,7 1,18 2,34 1,12 1,20 2,25 l -8,2 c -5,-19 -12,-36 -21,-48 -9,-13 -19,-22 -31,-30 -12,-7 -24,-12 -38,-15 -14,-3 -29,-4 -46,-4 -29,0 -58,1 -87,4 v 155 c 5,0 13,0 24,-1 10,0 18,-1 24,-1 30,0 53,-6 69,-18 16,-12 26,-33 30,-62 h 7 c 0,10 0,25 -1,45 0,20 -1,35 -1,44 0,10 0,25 1,45 0,20 1,35 1,45 h -7 c -4,-17 -8,-32 -13,-43 -5,-11 -12,-19 -20,-25 -8,-6 -18,-10 -30,-12 -12,-2 -26,-3 -43,-3 h -40 v 192 z"
   id="path66"
   inkscape:connector-curvature="0"
   style="fill:#000000;fill-rule:nonzero" />
  </g><g
         id="_401193520"
         style="fill:#000000">
   <path
   class="fil1"
   d="m 4218,5753 c 19,-2 33,-5 44,-9 11,-4 18,-11 23,-19 5,-8 8,-19 10,-32 2,-13 2,-32 2,-56 v -259 c 0,-25 -1,-44 -2,-57 -2,-13 -5,-24 -10,-32 -5,-9 -13,-15 -24,-19 -11,-4 -26,-7 -45,-9 v -9 c 56,2 98,3 127,3 23,0 57,-1 102,-3 v 9 c -19,2 -33,4 -43,9 -10,4 -18,10 -23,19 -5,9 -8,19 -10,33 -2,13 -2,32 -2,56 v 259 c 0,24 1,43 2,56 2,13 5,24 10,32 5,8 13,15 24,19 11,4 26,7 45,9 v 9 h -2 c -50,-2 -89,-3 -116,-3 -25,0 -63,1 -113,3 v -9 z"
   id="path69"
   inkscape:connector-curvature="0"
   style="fill:#000000;fill-rule:nonzero" />
  </g></g></g></g>
</svg>