<?xml version="1.0" encoding="UTF-8"?>
<!DOCTYPE svg PUBLIC "-//W3C//DTD SVG 1.1//EN" "http://www.w3.org/Graphics/SVG/1.1/DTD/svg11.dtd">
<!-- Creator: CorelDRAW X6 -->
<svg xmlns="http://www.w3.org/2000/svg" xml:space="preserve" width="8.5in" height="11in" version="1.1" style="shape-rendering:geometricPrecision; text-rendering:geometricPrecision; image-rendering:optimizeQuality; fill-rule:evenodd; clip-rule:evenodd"
viewBox="0 0 8500 11000"
 xmlns:xlink="http://www.w3.org/1999/xlink">
 <defs>
  <style type="text/css">
   <![CDATA[
    .fil0 {fill:#373435;fill-rule:nonzero}
    .fil1 {fill:#FEFEFE;fill-rule:nonzero}
   ]]>
  </style>
 </defs>
 <g id="bg">
  <metadata id="CorelCorpID_0Corel-Layer"/>
  <polygon class="fil0" points="8257,7709 213,7709 213,3195 8257,3195 "/>
 </g>
 <g id="logo">
  <metadata id="CorelCorpID_1Corel-Layer"/>
  <g id="_351459336">
   <g>
    <path class="fil1" d="M3388 5245c27,-16 54,-30 82,-44 -133,-66 -205,-113 -245,-149 -6,9 -12,19 -16,28l-9 21c17,33 63,76 189,144z"/>
    <path class="fil1" d="M3608 5266c-8,4 -15,7 -23,11l-14 7c-18,9 -36,18 -54,27 24,12 50,24 78,37l14 7c123,60 268,131 340,218 6,-7 11,-14 15,-20l9 -16c-41,-110 -224,-200 -365,-269z"/>
   </g>
   <g>
    <g>
     <path class="fil1" d="M3576 5790c32,-15 62,-29 90,-43 -22,-11 -43,-22 -64,-32l-14 -7c-204,-94 -307,-156 -359,-202 -9,12 -16,23 -21,35l-6 15c27,45 111,110 374,233z"/>
    </g>
    <g>
     <path class="fil1" d="M3793 5816c-24,13 -50,27 -80,42 93,48 183,103 235,166 6,-7 11,-14 15,-20l9 -16c-24,-64 -96,-121 -179,-171z"/>
    </g>
   </g>
  </g>
  <path class="fil1" d="M3981 4920c-28,49 -117,118 -399,248l-15 7c-159,78 -377,185 -377,316l0 42c49,-111 226,-197 372,-269l14 -7c405,-186 405,-244 405,-295l0 -42z"/>
  <g id="_351462528">
   <g>
    <path class="fil1" d="M3981 6014c-28,49 -117,118 -399,248l-15 7c-159,78 -377,185 -377,316l0 42c49,-110 226,-197 372,-269l15 -7c405,-186 405,-244 405,-295l0 -42z"/>
   </g>
  </g>
  <g id="_351463080">
   <g>
    <path class="fil1" d="M3981 5562c-28,49 -117,118 -399,248l-15 7c-159,78 -377,185 -377,316l0 42c49,-111 226,-197 372,-269l14 -7c405,-186 405,-244 405,-295l0 -42z"/>
   </g>
  </g>
  <path class="fil1" d="M3981 4458c-28,49 -117,118 -399,248l-15 7c-159,78 -377,185 -377,316l0 42c49,-111 226,-197 372,-269l14 -7c405,-186 405,-244 405,-295l0 -42z"/>
  <g id="_351463056">
   <path class="fil1" d="M1045 5251c50,2 87,3 111,3 27,0 68,-1 122,-3l0 9c-23,3 -41,8 -54,15 -13,7 -20,20 -20,40 0,7 5,23 14,47 3,8 5,14 7,18l108 285 96 -238 -40 -101c-16,-40 -45,-62 -88,-64l0 -9c46,2 80,3 103,3 30,0 73,-1 130,-3l0 9c-8,1 -16,2 -24,3 -8,2 -16,5 -23,8 -8,4 -14,8 -19,14 -5,6 -7,13 -7,21 0,8 5,25 15,50l116 307 118 -298c4,-10 8,-22 11,-34 3,-12 5,-22 5,-28 0,-8 -2,-14 -7,-20 -5,-5 -11,-10 -18,-13 -7,-3 -15,-6 -23,-8 -8,-2 -15,-3 -22,-3l0 -9 2 0c44,2 76,3 99,3 21,0 51,-1 90,-3l0 9c-15,2 -27,5 -38,11 -11,6 -20,13 -27,21 -7,8 -13,17 -18,26 -5,9 -10,20 -15,33l-1 2 -177 413 -13 0 -113 -308 -130 308 -14 0 -158 -419c-13,-35 -26,-57 -40,-67 -13,-10 -31,-17 -53,-20l-4 -1 0 -9z"/>
  </g>
  <g id="_351462936">
   <path class="fil1" d="M1818 5352l2 0c44,2 77,2 100,2 22,0 54,-1 98,-2l0 7c-14,2 -26,7 -36,12 -10,6 -15,15 -15,26 0,8 8,23 25,46l88 119 73 -115c11,-17 16,-33 16,-48 0,-12 -5,-21 -15,-29 -10,-7 -21,-12 -34,-12l0 -7c39,2 68,2 88,2 18,0 44,-1 79,-2l0 7c-13,2 -25,7 -36,13 -11,6 -21,14 -30,24 -12,12 -27,30 -44,55 -2,3 -5,6 -7,9l-85 124 0 91c0,15 1,28 4,37 2,9 7,17 12,22 6,5 13,9 22,12 9,2 21,4 37,6l0 7c-49,-2 -86,-2 -111,-2 -21,0 -51,1 -92,2l0 -7c28,-2 47,-8 57,-18 10,-10 15,-29 15,-58l0 -98 -112 -144 -2 -3c-15,-20 -29,-36 -43,-47 -14,-12 -32,-20 -54,-25l0 -7z"/>
   <path class="fil1" d="M2584 5470c-6,-14 -13,-27 -21,-40 -8,-13 -18,-24 -30,-34 -11,-10 -24,-19 -38,-25 -14,-6 -28,-9 -44,-9 -25,0 -45,5 -59,14 -14,9 -21,25 -21,46 0,12 3,22 8,31 6,9 13,17 23,24 10,7 20,13 31,19 11,5 26,12 43,19 23,10 41,18 55,25 14,7 27,15 40,26 13,10 23,23 30,38 8,15 12,32 12,51 0,39 -13,68 -39,87 -26,20 -59,30 -100,30 -11,0 -22,-1 -33,-3 -11,-2 -26,-5 -43,-8 -19,-5 -32,-7 -37,-7 -5,0 -13,2 -22,5 -2,1 -4,1 -4,2 -5,-30 -14,-74 -27,-133l-1 -6 8 -4c9,17 18,32 29,48 10,15 22,29 35,43 13,13 28,24 44,32 16,8 33,12 51,12 27,0 49,-6 66,-18 17,-12 26,-31 26,-56 0,-14 -3,-26 -9,-37 -6,-11 -15,-20 -25,-28 -11,-8 -22,-15 -34,-21 -12,-6 -28,-13 -48,-21 -21,-9 -37,-17 -50,-23 -13,-6 -25,-14 -37,-23 -12,-9 -21,-20 -28,-32 -7,-12 -10,-26 -10,-42 0,-16 3,-30 9,-43 6,-13 15,-25 25,-34 11,-10 23,-17 37,-22 14,-5 28,-7 44,-7 14,0 26,1 37,2 11,2 24,4 40,7l9 2c13,3 25,5 34,7 10,1 19,2 30,2 0,45 2,81 5,108l-9 0z"/>
   <path class="fil1" d="M2953 5470c-6,-14 -13,-27 -21,-40 -8,-13 -18,-24 -30,-34 -11,-10 -24,-19 -38,-25 -14,-6 -28,-9 -44,-9 -25,0 -45,5 -59,14 -14,9 -21,25 -21,46 0,12 3,22 8,31 6,9 13,17 23,24 10,7 20,13 31,19 11,5 26,12 43,19 23,10 41,18 55,25 14,7 27,15 40,26 13,10 23,23 30,38 8,15 12,32 12,51 0,39 -13,68 -39,87 -26,20 -59,30 -100,30 -11,0 -22,-1 -33,-3 -11,-2 -26,-5 -43,-8 -19,-5 -32,-7 -37,-7 -5,0 -13,2 -22,5 -2,1 -4,1 -4,2 -5,-30 -14,-74 -27,-133l-1 -6 8 -4c9,17 18,32 29,48 10,15 22,29 35,43 13,13 28,24 44,32 16,8 33,12 51,12 27,0 49,-6 66,-18 17,-12 26,-31 26,-56 0,-14 -3,-26 -9,-37 -6,-11 -15,-20 -25,-28 -11,-8 -22,-15 -34,-21 -12,-6 -28,-13 -48,-21 -21,-9 -37,-17 -50,-23 -13,-6 -25,-14 -37,-23 -12,-9 -21,-20 -28,-32 -7,-12 -10,-26 -10,-42 0,-16 3,-30 9,-43 6,-13 15,-25 25,-34 11,-10 23,-17 37,-22 14,-5 28,-7 44,-7 14,0 26,1 37,2 11,2 24,4 40,7l9 2c13,3 25,5 34,7 10,1 19,2 30,2 0,45 2,81 5,108l-9 0z"/>
  </g>
  <g id="_351463512">
   <path class="fil1" d="M4494 5352l11 1c12,0 24,1 37,1 13,0 26,1 39,1 11,0 28,-1 52,-2l2 0c7,9 18,23 33,42 15,19 36,44 62,76 20,24 37,45 51,62 14,17 28,35 44,54 15,19 28,35 39,48 11,13 19,25 25,33l1 0c0,-4 0,-17 1,-37 0,-20 0,-33 0,-37l0 -72c0,-57 -5,-98 -15,-122 -10,-24 -31,-37 -62,-40l0 -7c39,2 68,2 88,2 18,0 45,-1 81,-2l0 7c-26,4 -44,11 -54,22 -10,11 -15,29 -15,55l0 329 -23 0c-21,-34 -44,-67 -69,-100 -25,-33 -50,-65 -75,-95 -25,-30 -48,-56 -69,-80 -21,-23 -45,-49 -71,-78 -1,28 -1,49 -1,63l0 109c0,40 1,70 2,90 2,20 5,35 10,46 5,11 13,18 24,23 11,4 26,8 47,10l0 7c-55,-2 -96,-2 -123,-2 -16,0 -39,1 -71,2l0 -7 1 0c18,-2 31,-5 40,-7 9,-2 17,-5 23,-9 7,-4 12,-11 15,-19 3,-8 5,-19 6,-33l7 -285c-12,-10 -26,-18 -41,-25 -15,-6 -32,-12 -51,-16l0 -7z"/>
   <path class="fil1" d="M5295 5470c-6,-14 -13,-27 -21,-40 -8,-13 -18,-24 -30,-34 -11,-10 -24,-19 -38,-25 -14,-6 -28,-9 -44,-9 -25,0 -45,5 -59,14 -14,9 -21,25 -21,46 0,12 3,22 8,31 6,9 13,17 23,24 10,7 20,13 31,19 11,5 26,12 43,19 23,10 41,18 55,25 14,7 27,15 40,26 13,10 23,23 30,38 8,15 11,32 11,51 0,39 -13,68 -39,87 -26,20 -59,30 -100,30 -11,0 -22,-1 -33,-3 -11,-2 -26,-5 -43,-8 -19,-5 -32,-7 -37,-7 -5,0 -13,2 -22,5 -2,1 -4,1 -4,2 -5,-30 -14,-74 -27,-133l-1 -6 8 -4c9,17 18,32 29,48 10,15 22,29 35,43 13,13 28,24 44,32 16,8 33,12 51,12 27,0 49,-6 66,-18 17,-12 26,-31 26,-56 0,-14 -3,-26 -9,-37 -6,-11 -15,-20 -25,-28 -11,-8 -22,-15 -34,-21 -12,-6 -28,-13 -48,-21 -21,-9 -38,-17 -50,-23 -13,-6 -25,-14 -37,-23 -12,-9 -21,-20 -28,-32 -7,-12 -10,-26 -10,-42 0,-16 3,-30 9,-43 6,-13 15,-25 25,-34 11,-10 23,-17 37,-22 14,-5 28,-7 44,-7 14,0 26,1 37,2 11,2 24,4 40,7l9 2c13,3 25,5 34,7 10,1 19,2 30,2 0,45 2,81 5,108l-9 0z"/>
   <path class="fil1" d="M5468 5754c15,-1 27,-4 35,-7 8,-4 15,-9 19,-15 4,-7 7,-15 8,-26 1,-11 2,-26 2,-45l0 -288c-24,0 -43,1 -57,3 -14,2 -26,6 -37,13 -10,7 -20,17 -28,31 -8,14 -16,33 -24,58l-8 -2 9 -122c46,2 80,2 103,2l146 0c22,0 54,-1 96,-2l2 0 9 122 -8 2c-8,-25 -16,-44 -24,-58 -8,-14 -17,-24 -28,-31 -10,-7 -23,-11 -37,-13 -14,-2 -34,-3 -59,-3l0 288c0,19 1,34 2,45 1,11 4,19 8,26 4,7 11,12 19,15 9,4 21,6 36,7l0 7 -2 0c-40,-2 -71,-2 -93,-2 -20,0 -50,1 -90,2l0 -7z"/>
   <path class="fil1" d="M5791 5754c15,-1 27,-4 35,-7 8,-4 15,-9 19,-15 4,-7 7,-15 8,-26 1,-11 2,-26 2,-45l0 -208c0,-20 -1,-35 -2,-45 -1,-10 -4,-19 -8,-26 -4,-7 -10,-12 -19,-15 -8,-3 -20,-6 -36,-7l0 -7c45,2 79,2 101,2 19,0 46,-1 81,-2l0 7c-15,1 -26,4 -34,7 -8,3 -14,8 -18,15 -4,7 -7,16 -8,26 -1,11 -2,26 -2,45l0 208c0,19 1,34 2,45 1,11 4,19 8,26 4,7 11,12 19,15 9,4 21,6 36,7l0 7 -2 0c-40,-2 -71,-2 -93,-2 -20,0 -50,1 -90,2l0 -7z"/>
   <path class="fil1" d="M6112 5754c15,-1 27,-4 35,-7 8,-4 15,-9 19,-15 4,-7 7,-15 8,-26 1,-11 2,-26 2,-45l0 -288c-24,0 -43,1 -57,3 -14,2 -26,6 -37,13 -10,7 -20,17 -28,31 -8,14 -16,33 -24,58l-8 -2 9 -122c46,2 80,2 103,2l146 0c22,0 54,-1 96,-2l2 0 9 122 -8 2c-8,-25 -16,-44 -24,-58 -8,-14 -17,-24 -28,-31 -10,-7 -23,-11 -37,-13 -14,-2 -34,-3 -59,-3l0 288c0,19 1,34 2,45 1,11 4,19 8,26 4,7 11,12 19,15 9,4 21,6 36,7l0 7 -2 0c-40,-2 -71,-2 -93,-2 -20,0 -50,1 -90,2l0 -7z"/>
   <path class="fil1" d="M6485 5415c0,-21 -4,-34 -11,-40 -7,-6 -21,-11 -40,-15l-2 -1 0 -7c46,2 80,2 103,2 17,0 41,-1 72,-2l2 0 0 7c-27,2 -44,8 -53,18 -9,10 -14,28 -14,53l0 203c0,19 3,35 9,48 6,14 15,25 27,34 21,17 50,25 86,25 25,0 46,-4 63,-11 17,-7 31,-17 41,-28 10,-11 17,-23 21,-36 4,-13 6,-25 6,-36l0 -174c0,-34 -4,-57 -12,-71 -8,-13 -24,-21 -48,-24l0 -7c34,2 59,2 76,2 14,0 35,-1 63,-2l0 7c-11,2 -19,4 -26,6 -6,2 -12,6 -17,11 -5,5 -9,13 -11,23 -3,10 -4,24 -4,41l0 186c0,24 -4,45 -13,63 -8,18 -21,33 -36,46 -16,12 -34,21 -54,27 -21,6 -43,9 -66,9 -22,0 -42,-3 -62,-9 -19,-6 -37,-14 -52,-26 -15,-11 -27,-26 -36,-43 -9,-17 -13,-37 -13,-58l0 -221z"/>
   <path class="fil1" d="M7010 5754c15,-1 27,-4 35,-7 8,-4 15,-9 19,-15 4,-7 7,-15 8,-26 1,-11 2,-26 2,-45l0 -288c-24,0 -43,1 -57,3 -14,2 -26,6 -37,13 -10,7 -20,17 -28,31 -8,14 -16,33 -24,58l-8 -2 9 -122c46,2 80,2 103,2l146 0c22,0 54,-1 96,-2l2 0 9 122 -8 2c-8,-25 -16,-44 -24,-58 -8,-14 -17,-24 -28,-31 -10,-7 -23,-11 -37,-13 -14,-2 -34,-3 -59,-3l0 288c0,19 1,34 2,45 1,11 4,19 8,26 4,7 11,12 19,15 9,4 21,6 36,7l0 7 -2 0c-40,-2 -71,-2 -93,-2 -20,0 -50,1 -90,2l0 -7z"/>
   <path class="fil1" d="M7446 5735c8,2 19,4 33,6 14,2 26,2 36,2 25,0 48,-2 67,-6 19,-4 37,-11 53,-20 16,-9 31,-20 46,-34 15,-14 29,-31 45,-52l7 6 -57 125c-19,-2 -34,-2 -44,-2l-234 0c-16,0 -40,1 -70,2l-2 0 0 -7c15,-1 27,-4 35,-7 8,-4 14,-9 19,-15 4,-7 7,-15 8,-26 1,-11 2,-26 2,-45l0 -208c0,-20 -1,-35 -2,-45 -1,-10 -4,-19 -8,-26 -4,-7 -10,-12 -19,-15 -9,-3 -20,-6 -36,-7l0 -7 23 1c22,0 46,1 71,1 25,0 51,1 80,1 40,0 98,-1 173,-2l2 0c-1,13 -1,30 -1,52 0,7 1,18 2,34 1,12 1,20 2,25l-8 2c-5,-19 -12,-36 -21,-48 -9,-13 -19,-22 -31,-30 -12,-7 -24,-12 -38,-15 -14,-3 -29,-4 -46,-4 -29,0 -58,1 -87,4l0 155c5,0 13,0 24,-1 10,0 18,-1 24,-1 30,0 53,-6 69,-18 16,-12 26,-33 30,-62l7 0c0,10 0,25 -1,45 0,20 -1,35 -1,44 0,10 0,25 1,45 0,20 1,35 1,45l-7 0c-4,-17 -8,-32 -13,-43 -5,-11 -12,-19 -20,-25 -8,-6 -18,-10 -30,-12 -12,-2 -26,-3 -43,-3l-40 0 0 192z"/>
  </g>
  <g id="_351464232">
   <path class="fil1" d="M4218 5753c19,-2 33,-5 44,-9 11,-4 18,-11 23,-19 5,-8 8,-19 10,-32 2,-13 2,-32 2,-56l0 -259c0,-25 -1,-44 -2,-57 -2,-13 -5,-24 -10,-32 -5,-9 -13,-15 -24,-19 -11,-4 -26,-7 -45,-9l0 -9c56,2 98,3 127,3 23,0 57,-1 102,-3l0 9c-19,2 -33,4 -43,9 -10,4 -18,10 -23,19 -5,9 -8,19 -10,33 -2,13 -2,32 -2,56l0 259c0,24 1,43 2,56 2,13 5,24 10,32 5,8 13,15 24,19 11,4 26,7 45,9l0 9 -2 0c-50,-2 -89,-3 -116,-3 -25,0 -63,1 -113,3l0 -9z"/>
  </g>
 </g>
</svg>
